<svg width="20" height="20" viewBox="0 0 20 20" fill="none" xmlns="http://www.w3.org/2000/svg">
<path d="M11.2045 10.9091C10.7652 10.303 10.1479 9.84848 9.35273 9.54545C8.55697 9.24242 7.71212 9.09091 6.81818 9.09091C5.92424 9.09091 5.0797 9.24242 4.28455 9.54545C3.48879 9.84848 2.87121 10.303 2.43182 10.9091H11.2045ZM0 12.7273C0 11.8182 0.19697 11.0227 0.590909 10.3409C0.984848 9.65909 1.5 9.09091 2.13636 8.63636C2.77273 8.18182 3.5 7.84091 4.31818 7.61364C5.13636 7.38636 5.9697 7.27273 6.81818 7.27273C7.66667 7.27273 8.5 7.38636 9.31818 7.61364C10.1364 7.84091 10.8636 8.18182 11.5 8.63636C12.1364 9.09091 12.6515 9.65909 13.0455 10.3409C13.4394 11.0227 13.6364 11.8182 13.6364 12.7273H0ZM0 16.3636V14.5455H13.6364V16.3636H0ZM15.4545 20V18.1818H16.7273L18 5.45455H9.31818L9.09091 3.63636H13.6364V0H15.4545V3.63636H20L18.5 18.6818C18.4545 19.0455 18.2915 19.3561 18.0109 19.6136C17.7309 19.8712 17.3939 20 17 20H15.4545ZM0.909091 20C0.651515 20 0.435758 19.9127 0.261818 19.7382C0.0872727 19.5642 0 19.3485 0 19.0909V18.1818H13.6364V19.0909C13.6364 19.3485 13.5494 19.5642 13.3755 19.7382C13.2009 19.9127 12.9848 20 12.7273 20H0.909091Z" fill="black"/>
</svg>
